<svg width="501" height="49" viewBox="0 0 501 49" fill="none" xmlns="http://www.w3.org/2000/svg">
<path d="M11.1592 39.415C14.9434 39.415 17.7998 37.7305 19.1914 34.8252H19.6309V39H26.7598V1.8418H19.6309V16.417H19.1914C17.8486 13.4873 14.8457 11.6807 11.1592 11.6807C4.34766 11.6807 0.246094 16.8809 0.246094 25.5234V25.5723C0.246094 34.166 4.44531 39.415 11.1592 39.415ZM13.5762 33.5068C9.81641 33.5068 7.49707 30.5283 7.49707 25.5723V25.5234C7.49707 20.6162 9.81641 17.5889 13.5762 17.5889C17.3359 17.5889 19.7041 20.6162 19.7041 25.5479V25.5967C19.7041 30.5283 17.3604 33.5068 13.5762 33.5068ZM37.7705 7.99414C39.9678 7.99414 41.7744 6.23633 41.7744 4.03906C41.7744 1.81738 39.9678 0.0595703 37.7705 0.0595703C35.5732 0.0595703 33.7422 1.81738 33.7422 4.03906C33.7422 6.23633 35.5732 7.99414 37.7705 7.99414ZM34.1816 39H41.3105V12.1201H34.1816V39ZM59.1816 39.5615C66.0664 39.5615 70.9736 36.0947 70.9736 30.7725V30.748C70.9736 26.7686 68.459 24.5225 63.0879 23.375L58.6201 22.4229C55.8369 21.8125 54.8359 20.9824 54.8359 19.542V19.5176C54.8359 17.7109 56.5938 16.5635 59.0596 16.5635C61.7207 16.5635 63.3076 17.9062 63.6982 19.3467L63.7227 19.4688H70.3389V19.3711C70.0459 15.0498 66.1396 11.5342 59.084 11.5342C52.3701 11.5342 47.8779 14.9033 47.8779 19.957V19.9814C47.8779 24.0098 50.417 26.5244 55.5439 27.623L60.0361 28.5752C62.7705 29.1855 63.8447 30.0889 63.8447 31.5293V31.5781C63.8447 33.3604 61.9893 34.5322 59.2549 34.5322C56.4473 34.5322 54.8115 33.3359 54.25 31.6758L54.2012 31.5781H47.1943L47.2188 31.6758C47.7314 36.29 51.8818 39.5615 59.1816 39.5615ZM85.3779 39.1709C86.1348 39.1709 86.7451 39.0977 87.4043 39V37.3398C86.8672 37.3887 86.2812 37.4375 85.5732 37.4375C82.3018 37.4375 81.0322 35.9727 81.0322 32.5547V14.3662H87.4043V12.7061H81.0322V5.87012H79.1035V12.7061H74.7822V14.3662H79.1035V32.8477C79.1035 37.291 80.9102 39.1709 85.3779 39.1709ZM94.582 39H96.4619V22.4717C96.4619 17.6865 99.6602 14.0977 103.835 14.0977C104.958 14.0977 105.886 14.2441 106.887 14.5615V12.6816C105.983 12.4131 105.129 12.3154 103.957 12.3154C100.417 12.3154 97.7314 14.293 96.6572 17.6133H96.4619V12.7061H94.582V39ZM113.894 6.77344C114.797 6.77344 115.554 6.04102 115.554 5.1377C115.554 4.23438 114.797 3.47754 113.894 3.47754C112.99 3.47754 112.258 4.23438 112.258 5.1377C112.258 6.04102 112.99 6.77344 113.894 6.77344ZM112.941 39H114.846V12.7061H112.941V39ZM135.695 39.415C142.287 39.415 146.779 33.8975 146.779 25.8408V25.792C146.779 17.7354 142.336 12.3154 135.695 12.3154C131.252 12.3154 127.517 14.9521 126.052 19.127H125.856V2.23242H123.977V39H125.856V32.3838H126.052C127.492 36.7051 131.154 39.415 135.695 39.415ZM135.427 37.6816C129.763 37.6816 125.832 32.8721 125.832 25.8408V25.792C125.832 18.8096 129.738 14.0244 135.427 14.0244C141.115 14.0244 144.851 18.7119 144.851 25.792V25.8408C144.851 32.9209 141.091 37.6816 135.427 37.6816ZM163.43 39.415C167.8 39.415 171.145 37.1934 172.414 33.5557H172.585V39H174.489V12.7061H172.585V28.4043C172.585 33.8975 169.045 37.6816 163.771 37.6816C158.84 37.6816 155.861 34.5078 155.861 29.3809V12.7061H153.957V29.8936C153.957 35.6797 157.619 39.415 163.43 39.415ZM190.993 39.1709C191.75 39.1709 192.36 39.0977 193.02 39V37.3398C192.482 37.3887 191.896 37.4375 191.188 37.4375C187.917 37.4375 186.647 35.9727 186.647 32.5547V14.3662H193.02V12.7061H186.647V5.87012H184.719V12.7061H180.397V14.3662H184.719V32.8477C184.719 37.291 186.525 39.1709 190.993 39.1709ZM209.963 39.415C215.285 39.415 219.191 36.6807 220.412 33.1162L220.485 32.9209H218.557L218.483 33.0674C217.409 35.7041 214.187 37.6816 209.987 37.6816C204.079 37.6816 200.222 33.2871 200.148 26.207H220.998V25.2549C220.998 17.5645 216.652 12.3154 209.719 12.3154C202.785 12.3154 198.22 17.5645 198.22 25.8896V25.9385C198.22 34.166 202.761 39.415 209.963 39.415ZM209.719 14.0244C215.114 14.0244 218.825 17.9307 219.118 24.5713H200.148C200.441 18.0039 204.299 14.0244 209.719 14.0244ZM238.283 39.415C242.824 39.415 246.486 36.6807 247.951 32.3838H248.122V39H250.002V2.23242H248.122V19.1514H247.951C246.462 14.9766 242.727 12.3154 238.283 12.3154C231.643 12.3154 227.028 17.8574 227.028 25.8408V25.8896C227.028 33.873 231.618 39.415 238.283 39.415ZM238.552 37.6816C232.839 37.6816 228.957 32.8965 228.957 25.8896V25.8408C228.957 18.834 232.839 14.0244 238.552 14.0244C244.24 14.0244 248.146 18.834 248.146 25.8408V25.8896C248.146 32.8965 244.24 37.6816 238.552 37.6816ZM269.997 39.5615C277.004 39.5615 281.203 35.8018 281.936 29.9424L281.96 29.7959H275.368L275.319 29.8936C274.685 32.5791 272.951 33.9707 270.021 33.9707C266.213 33.9707 264.089 30.9678 264.089 25.5234V25.4746C264.089 20.1035 266.188 17.125 270.021 17.125C273.073 17.125 274.855 18.834 275.319 21.4463L275.344 21.4951H281.984V21.4219C281.35 15.416 277.126 11.5342 269.997 11.5342C261.574 11.5342 256.838 16.6367 256.838 25.4746V25.5234C256.838 34.459 261.599 39.5615 269.997 39.5615ZM299.489 39.5615C307.766 39.5615 312.746 34.3369 312.746 25.5723V25.5234C312.746 16.832 307.692 11.5342 299.489 11.5342C291.286 11.5342 286.232 16.8564 286.232 25.5234V25.5723C286.232 34.3125 291.213 39.5615 299.489 39.5615ZM299.489 33.9707C295.681 33.9707 293.532 30.8701 293.532 25.5723V25.5234C293.532 20.2744 295.705 17.125 299.489 17.125C303.249 17.125 305.446 20.2744 305.446 25.5234V25.5723C305.446 30.8701 303.273 33.9707 299.489 33.9707ZM319.338 39H321.218V23.1064C321.218 18.0039 324.562 14.0244 328.835 14.0244C332.912 14.0244 335.622 17.1006 335.622 21.7393V39H337.502V22.6426C337.502 17.6133 340.603 14.0244 345.168 14.0244C349.465 14.0244 351.906 16.832 351.906 21.6904V39H353.811V21.251C353.811 15.6357 350.734 12.3154 345.559 12.3154C341.604 12.3154 338.405 14.6348 337.136 18.2725H336.965C335.939 14.5615 333.132 12.3154 329.25 12.3154C325.515 12.3154 322.512 14.6348 321.413 18.2236H321.218V12.7061H319.338V39ZM362.307 47.6182H364.187V32.5547H364.382C365.847 36.7539 369.582 39.415 374.025 39.415C380.666 39.415 385.28 33.873 385.28 25.8652V25.8164C385.28 17.833 380.69 12.3154 374.025 12.3154C369.484 12.3154 365.822 15.0498 364.382 19.3467H364.187V12.7061H362.307V47.6182ZM373.757 37.6816C368.093 37.6816 364.162 32.8965 364.162 25.8896V25.8408C364.162 18.834 368.068 14.0244 373.757 14.0244C379.47 14.0244 383.352 18.834 383.352 25.8408V25.8896C383.352 32.8965 379.47 37.6816 373.757 37.6816ZM401.76 39.415C406.13 39.415 409.475 37.1934 410.744 33.5557H410.915V39H412.819V12.7061H410.915V28.4043C410.915 33.8975 407.375 37.6816 402.102 37.6816C397.17 37.6816 394.191 34.5078 394.191 29.3809V12.7061H392.287V29.8936C392.287 35.6797 395.949 39.415 401.76 39.415ZM429.323 39.1709C430.08 39.1709 430.69 39.0977 431.35 39V37.3398C430.812 37.3887 430.227 37.4375 429.519 37.4375C426.247 37.4375 424.978 35.9727 424.978 32.5547V14.3662H431.35V12.7061H424.978V5.87012H423.049V12.7061H418.728V14.3662H423.049V32.8477C423.049 37.291 424.855 39.1709 429.323 39.1709ZM439.675 6.77344C440.578 6.77344 441.335 6.04102 441.335 5.1377C441.335 4.23438 440.578 3.47754 439.675 3.47754C438.771 3.47754 438.039 4.23438 438.039 5.1377C438.039 6.04102 438.771 6.77344 439.675 6.77344ZM438.723 39H440.627V12.7061H438.723V39ZM449.514 39H451.394V23.3262C451.394 17.9062 455.178 14.0244 460.427 14.0244C465.456 14.0244 468.142 17.0273 468.142 22.3252V39H470.046V21.8125C470.046 15.8555 466.579 12.3154 460.769 12.3154C456.398 12.3154 453.103 14.5127 451.589 18.2236H451.394V12.7061H449.514V39ZM488.991 48.0332C495.583 48.0332 500.026 44.2979 500.026 38.7559V12.7061H498.146V19.3711H497.976C496.633 15.0986 492.922 12.3154 488.405 12.3154C481.691 12.3154 477.224 17.7109 477.224 25.4746V25.5234C477.224 33.2627 481.667 38.6094 488.381 38.6094C492.971 38.6094 496.535 36.0947 497.976 31.8711H498.146V38.5117C498.146 43.248 494.558 46.2998 489.04 46.2998C484.694 46.2998 481.472 44.5176 480.739 41.832L480.715 41.8076H478.762L478.737 41.832C479.47 45.5674 483.425 48.0332 488.991 48.0332ZM488.649 36.9004C482.912 36.9004 479.152 32.2373 479.152 25.499V25.4502C479.152 18.7119 482.912 14.0244 488.649 14.0244C494.338 14.0244 498.171 18.8096 498.171 25.5967V25.6455C498.171 32.3594 494.436 36.9004 488.649 36.9004Z" fill="black"/>
</svg>
